# xmcd
# 
# Track frame offsets:
#     150
#     21820
#     43907
#     65582
# 
# Disc length: 1167
# 
# Revision: 0
# Processed by: cddbd v1.5.2PL0 Copyright (c) Steve Scherf et al.
# Submitted via: fre:ac v1.0.17
# 
DISCID=32048d04
DTITLE=岡本真夜 - 想い出にできなくて
DYEAR=1998
DGENRE=J-Pop
TTITLE0=想い出にできなくて
TTITLE1=会いたくて～Acoustic Version～
TTITLE2=想い出にできなくて(ORIGINAL KARAOKE)
TTITLE3=会いたくて(ORIGINAL KARAOKE)
EXTD=
EXTT0=
EXTT1=
EXTT2=
EXTT3=
PLAYORDER=
